IKResults
version=1
nRows=4
nColumns=63
inDegrees=yes

Units are S.I. units (second, meters, Newtons, ...)
If the header above contains a line with 'inDegrees', this indicates whether rotational values are in degrees (yes) or radians (no).

endheader
time	pelvis_tilt	pelvis_list	pelvis_rotation	pelvis_tx	pelvis_ty	pelvis_tz	hip_flexion_r	hip_adduction_r	hip_rotation_r	knee_angle_r	knee_angle_r_beta	ankle_angle_r	subtalar_angle_r	mtp_angle_r	hip_flexion_l	hip_adduction_l	hip_rotation_l	knee_angle_l	knee_angle_l_beta	ankle_angle_l	subtalar_angle_l	mtp_angle_l	L5_S1_Flex_Ext	L5_S1_Lat_Bending	L5_S1_axial_rotation	L4_L5_Flex_Ext	L4_L5_Lat_Bending	L4_L5_axial_rotation	L3_L4_Flex_Ext	L3_L4_Lat_Bending	L3_L4_axial_rotation	L2_L3_Flex_Ext	L2_L3_Lat_Bending	L2_L3_axial_rotation	L1_L2_Flex_Ext	L1_L2_Lat_Bending	L1_L2_axial_rotation	L1_T12_Flex_Ext	L1_T12_Lat_Bending	L1_T12_axial_rotation	Abs_r3	Abs_r2	Abs_r1	Abs_t1	Abs_t2	neck_flexion	neck_bending	neck_rotation	arm_flex_r	arm_add_r	arm_rot_r	elbow_flex_r	pro_sup_r	wrist_flex_r	wrist_dev_r	arm_flex_l	arm_add_l	arm_rot_l	elbow_flex_l	pro_sup_l	wrist_flex_l	wrist_dev_l
      0.03333333	    -12.31154451	      3.08905385	      0.82740201	      0.09628702	      0.97315813	     -0.40605644	      3.96781489	     -7.23835029	    -19.26014445	      1.74378588	      0.03043481	     17.75751063	     14.38115688	      0.00000000	      6.87702579	     -4.39485985	     -8.14407216	      3.96612072	      0.06922187	     12.80468207	     -6.35044605	      0.00000000	      2.43935092	     -0.38683522	     -0.36027988	      4.53011858	     -0.51449084	     -0.38279737	      4.00760962	     -0.94055115	     -0.38279737	      2.78793416	     -0.94055115	     -0.31524489	      2.26518126	     -0.78883437	     -0.29272740	      1.39384511	     -0.59920775	     -0.27020991	     17.42403965	     -4.37595734	     -2.00376860	      0.00000000	      0.00000000	     17.19689823	     -1.51219832	     -6.24193160	    -16.48078749	    -13.13673502	     20.43040691	     32.71895766	     89.99559364	      0.00000000	      0.00000000	    -19.46371646	    -14.21742320	      4.62667815	     40.20349079	     89.99559364	      0.00000000	      0.00000000
      0.06666667	    -12.30869194	      3.08828842	      0.82804274	      0.09625064	      0.97320961	     -0.40606685	      3.96969479	     -7.23940145	    -19.25933943	      1.75062861	      0.03055423	     17.75782998	     14.37718606	      0.00000000	      6.87749454	     -4.39483129	     -8.14383594	      3.96920488	      0.06927569	     12.80497804	     -6.34953058	      0.00000000	      2.43908661	     -0.38672871	     -0.36028517	      4.52962774	     -0.51434918	     -0.38280300	      4.00717539	     -0.94029218	     -0.38280300	      2.78763208	     -0.94029218	     -0.31524953	      2.26493582	     -0.78861718	     -0.29273170	      1.39369409	     -0.59904277	     -0.27021388	     17.42215173	     -4.37475249	     -2.00379805	      0.00000000	      0.00000000	     17.19503189	     -1.51218124	     -6.24175823	    -16.48315336	    -13.13587232	     20.43100290	     32.71907323	     89.99559364	      0.00000000	      0.00000000	    -19.46516696	    -14.21753935	      4.62680388	     40.20363946	     89.99559364	      0.00000000	      0.00000000
      0.10000000	    -12.30428291	      3.08818339	      0.83244759	      0.09610990	      0.97329567	     -0.40614404	      3.97741644	     -7.24621984	    -19.25837134	      1.75459545	      0.03062347	     17.76158250	     14.37053076	      0.00000000	      6.88289382	     -4.38859646	     -8.14405921	      3.97092220	      0.06930567	     12.80828429	     -6.34851466	      0.00000000	      2.43567278	     -0.38543893	     -0.36015471	      4.52328791	     -0.51263378	     -0.38266438	      4.00156680	     -0.93715623	     -0.38266438	      2.78373042	     -0.93715623	     -0.31513537	      2.26176574	     -0.78598708	     -0.29262570	      1.39174342	     -0.59704491	     -0.27011603	     17.39776707	     -4.36016232	     -2.00307244	      0.00000000	      0.00000000	     17.18921752	     -1.51269751	     -6.24044676	    -16.50391792	    -13.13034212	     20.43687348	     32.70856658	     89.99559364	      0.00000000	      0.00000000	    -19.47181593	    -14.21770809	      4.62757529	     40.20242908	     89.99559364	      0.00000000	      0.00000000
      0.13333333	    -12.30061988	      3.08846314	      0.83671460	      0.09590279	      0.97341990	     -0.40623474	      3.98626824	     -7.25369756	    -19.25750161	      1.75517692	      0.03063362	     17.76631004	     14.36413321	      0.00000000	      6.89493665	     -4.37777127	     -8.14408744	      3.97000003	      0.06928957	     12.81198501	     -6.34752593	      0.00000000	      2.43238135	     -0.38419875	     -0.35966608	      4.51717540	     -0.51098433	     -0.38214521	      3.99615932	     -0.93414083	     -0.38214521	      2.77996864	     -0.93414083	     -0.31470782	      2.25870932	     -0.78345808	     -0.29222869	      1.38986270	     -0.59512386	     -0.26974956	     17.37425673	     -4.34613305	     -2.00035486	      0.00000000	      0.00000000	     17.18230126	     -1.51397800	     -6.23803373	    -16.52546125	    -13.12517112	     20.44416981	     32.69015061	     89.99559364	      0.00000000	      0.00000000	    -19.47661823	    -14.21344586	      4.62976079	     40.20036723	     89.99559364	      0.00000000	      0.00000000
